<svg width="24" height="24" xmlns="http://www.w3.org/2000/svg" xmlns:xlink="http://www.w3.org/1999/xlink"><defs><path d="M16.302 5.524l.012.012 4.901 4.945c.474.321.785.864.785 1.48v.033c0 .519-.22.986-.574 1.312l-5.112 5.158a1.779 1.779 0 01-2.515.012l-.012-.012-.018-.018a1.787 1.787 0 010-2.515L15.9 13.78H3.787C2.8 13.78 2 12.98 2 11.995v-.034c0-.986.8-1.786 1.787-1.786l12.067-.001-2.085-2.104a1.787 1.787 0 010-2.515l.018-.018a1.779 1.779 0 012.515-.012z" id="a"/></defs><g fill="none" fill-rule="evenodd"><mask id="b"><use xlink:href="#a"/></mask><use fill="#9EA1A7" xlink:href="#a"/><g mask="url(#b)" fill="#121212"><path d="M0 0h24v24H0z"/></g></g></svg>
