<?xml version="1.0" encoding="UTF-8"?>
<svg width="50" height="51" viewBox="0 0 50 51" fill="none" xmlns="http://www.w3.org/2000/svg">
    <path
        d="M26.256 46.8025C26.1419 46.8858 26.0041 46.9725 25.8628 47.0711C25.7222 47.1646 25.5875 47.2668 25.4594 47.377C25.3419 47.4743 25.2432 47.5924 25.1684 47.7254C25.1041 47.8488 25.0872 47.9915 25.1208 48.1265C25.1208 48.1537 25.1344 48.1775 25.1412 48.203L25.1667 48.2761L25.1956 48.3491L25.2263 48.4205C25.1344 48.5565 25.0561 48.6976 24.9795 48.8284C24.911 48.953 24.8324 49.0718 24.7446 49.1836C24.6628 49.2864 24.5594 49.3699 24.4417 49.4284C24.3022 49.49 24.1497 49.5168 23.9975 49.5066C23.8239 49.4992 23.6521 49.4683 23.4869 49.4148C23.3232 49.3617 23.1652 49.2922 23.0155 49.2074C22.8594 49.1187 22.7093 49.0199 22.5662 48.9117C22.4198 48.8029 22.2751 48.6857 22.1356 48.5718C22.1356 48.5531 22.1356 48.5361 22.1236 48.5191C22.1117 48.5021 22.1236 48.4851 22.1117 48.4664C22.0998 48.4477 22.1117 48.4324 22.0981 48.4137C22.0845 48.395 22.0862 48.378 22.0828 48.361C22.0423 48.235 21.9851 48.115 21.9126 48.0041C21.8366 47.8961 21.7493 47.7964 21.6522 47.7067C21.5542 47.6165 21.4501 47.533 21.3408 47.4569C21.2318 47.3821 21.1178 47.3107 21.0004 47.2461C21.0009 47.2495 21.0009 47.2529 21.0004 47.2563V47.2665V47.2767V47.2869L21.0174 47.3498C21.0174 47.3702 21.0293 47.3906 21.0361 47.4127C21.0429 47.4348 21.048 47.4552 21.0548 47.4773C21.0616 47.4994 21.0684 47.5198 21.077 47.5418C21.2028 47.8812 21.3771 48.2006 21.5943 48.4902C21.7985 48.7765 22.0394 49.0347 22.3109 49.2584C22.5754 49.4772 22.8693 49.658 23.184 49.7955C23.4925 49.9313 23.8226 50.0118 24.1592 50.0334C24.4833 50.0542 24.8078 49.9995 25.1071 49.8737C25.404 49.7455 25.6663 49.5493 25.873 49.3009C26.0979 49.0296 26.2574 48.7104 26.3393 48.3678C26.4324 47.9719 26.4353 47.5601 26.3479 47.1628L26.2611 46.8025"
        fill="#1D1D1B"
    />
    <path
        d="M12.8821 30.0991L12.7766 30.1484L12.6727 30.2028L12.5689 30.2623L12.4668 30.3286C12.2779 30.4526 12.1026 30.575 11.9375 30.7059C11.7727 30.8338 11.6185 30.9748 11.4763 31.1274C11.3234 31.2919 11.1866 31.4706 11.0678 31.661C10.9267 31.8857 10.8043 32.1216 10.7019 32.3664C11.0254 32.3212 11.3536 32.3212 11.6771 32.3664C12.0217 32.4141 12.3589 32.5043 12.6813 32.6349C13.0387 32.7803 13.3807 32.9608 13.7024 33.1737C14.0634 33.4151 14.4049 33.6844 14.7236 33.9793L13.362 29.9394L13.2395 29.97L13.1187 30.0057L12.9978 30.0482L12.8787 30.0974"
        fill="#1D1D1B"
    />
    <path
        d="M13.9901 29.8799L15.3329 33.8127L18.3164 33.8569C18.0267 33.273 17.6915 32.7127 17.314 32.1811C16.9965 31.7323 16.6332 31.3176 16.2299 30.9438C15.8966 30.633 15.5192 30.373 15.11 30.1722C14.7602 30.0006 14.3793 29.9018 13.9901 29.8816"
        fill="#1D1D1B"
    />
    <path
        d="M15.7584 35.0534C16.2499 35.6394 16.6997 36.259 17.1047 36.9076C17.5716 37.6525 17.996 38.423 18.376 39.2156C18.7845 40.0654 19.1708 40.9764 19.5299 41.9503C19.889 42.9241 20.226 43.9761 20.5256 45.0741C20.5477 44.5965 20.5528 44.1053 20.5443 43.6056C20.5358 43.106 20.5102 42.5978 20.4677 42.0845C20.4251 41.5712 20.3707 41.0529 20.2975 40.5311C20.2243 40.0093 20.1273 39.4876 20.0269 38.9641C19.9543 38.6129 19.876 38.2695 19.792 37.9342C19.7086 37.5943 19.6218 37.273 19.5231 36.9535C19.4244 36.634 19.3291 36.3247 19.2253 36.0255C19.1215 35.7264 19.0108 35.4358 18.9002 35.1537L15.7584 35.0534Z"
        fill="#1D1D1B"
    />
    <path
        d="M9 6.09949C9.08623 6.90736 9.18267 7.72485 9.28933 8.55198C9.39598 9.3791 9.51228 10.2159 9.63823 11.0622C9.76644 11.9052 9.90486 12.759 10.0535 13.6235C10.2021 14.488 10.3616 15.3588 10.5317 16.2357C10.7587 17.3835 10.9947 18.5069 11.2398 19.606C11.4848 20.705 11.7441 21.7814 12.0175 22.8352C12.2887 23.8878 12.5724 24.9075 12.8685 25.8944C13.1646 26.8813 13.4642 27.8444 13.7671 28.7837C13.8994 28.763 14.0332 28.7528 14.1671 28.7531C14.3034 28.7548 14.4393 28.7667 14.5739 28.7888C14.7129 28.8119 14.85 28.8455 14.984 28.889C15.1243 28.9366 15.2614 28.9934 15.3942 29.059C15.0788 28.3169 14.7696 27.5549 14.4666 26.7731C14.1637 25.9913 13.8687 25.193 13.5816 24.3784C13.2957 23.5626 13.0166 22.7287 12.7443 21.8766C12.472 21.0246 12.2053 20.1606 11.9444 19.2848C11.604 18.1336 11.2891 16.9892 10.9998 15.8516C10.7104 14.7141 10.4438 13.5957 10.1999 12.4967C9.95592 11.3988 9.7341 10.3144 9.53441 9.2437C9.33471 8.17297 9.15658 7.1249 9 6.09949Z"
        fill="#1D1D1B"
    />
    <path
        d="M35.586 22.8946C35.4159 22.9235 35.2354 22.9558 35.0601 22.9932C34.8848 23.0306 34.7198 23.0697 34.5394 23.1139C34.3589 23.1581 34.199 23.2057 34.0288 23.255C33.8586 23.3042 33.6884 23.3603 33.5182 23.4249L32.9583 28.4149C33.5147 27.7856 34.1063 27.1881 34.73 26.6252C35.3242 26.0869 35.9493 25.5835 36.6021 25.1177C37.2307 24.6673 37.886 24.2552 38.5644 23.8838C39.2204 23.5271 39.898 23.2115 40.5931 22.9388C40.2089 22.8211 39.8155 22.7353 39.4171 22.6822C39.0301 22.6313 38.6399 22.6086 38.2496 22.6142C37.853 22.6142 37.448 22.6482 37.0242 22.6941C36.6004 22.74 36.1511 22.8063 35.6762 22.8794H35.6524H35.6303H35.6082H35.586"
        fill="#1D1D1B"
    />
    <path
        d="M31.3158 30.4781L24.0605 34.0812C23.9618 34.4812 23.8801 34.8863 23.8154 35.2964C23.7507 35.7066 23.7025 36.123 23.6707 36.5456C23.6384 36.9671 23.6248 37.3954 23.6316 37.8203C23.6384 38.2452 23.6605 38.6837 23.7048 39.1154C23.77 39.7508 23.878 40.381 24.0281 41.0019C24.1739 41.6045 24.3616 42.1963 24.5898 42.7729C24.8128 43.3346 25.0756 43.8799 25.3761 44.4044C25.6704 44.9171 26.0014 45.4079 26.3666 45.8729C26.4228 42.9821 26.9192 40.1166 27.8388 37.375C28.2629 36.1142 28.7776 34.8856 29.379 33.6988C29.9452 32.5816 30.5919 31.5069 31.3141 30.4832"
        fill="#1D1D1B"
    />
    <path
        opacity="0.7"
        d="M29.1288 0.259766C29.3727 1.18267 29.5687 2.11755 29.716 3.06066C29.8726 4.03961 29.99 5.05596 30.0785 6.10969C30.167 7.16342 30.2317 8.28174 30.2759 9.42725C30.3202 10.5728 30.3474 11.7931 30.3678 13.0354C30.4155 15.9247 30.1976 18.2514 29.8181 20.1923C29.4985 21.8852 28.9721 23.5325 28.2506 25.0973C27.6684 26.2967 27.0237 27.4648 26.3189 28.5967C25.6926 29.6607 25.1429 30.66 24.8008 31.8259C24.7889 31.8565 24.777 31.8854 24.7651 31.9143C24.7531 31.9432 24.7395 31.9738 24.7276 32.0027L24.6919 32.091C24.68 32.1216 24.668 32.1505 24.6561 32.1811L31.5183 28.8873C31.8689 26.6915 32.0953 24.6384 32.2195 22.7145C32.3421 20.845 32.3727 19.1012 32.3404 17.4781C32.3063 15.8907 32.211 14.4189 32.0766 13.0592C31.9421 11.6996 31.7753 10.4946 31.5898 9.38306C31.4503 8.54178 31.2903 7.71918 31.115 6.91529C30.9397 6.11139 30.7474 5.33808 30.5397 4.57668C30.3321 3.81527 30.1108 3.08445 29.8743 2.36723C29.6377 1.65001 29.3909 0.939594 29.1288 0.259766Z"
        fill="#1D1D1B"
    />
</svg>
