<?xml version="1.0" encoding="UTF-8"?>
<svg width="160" height="62" viewBox="0 0 160 62" fill="none" xmlns="http://www.w3.org/2000/svg">
    <path
        d="M17.256 47.1727C17.1419 47.2559 17.0041 47.3426 16.8628 47.4412C16.7222 47.5348 16.5875 47.6369 16.4594 47.7471C16.3419 47.8444 16.2432 47.9625 16.1684 48.0955C16.1041 48.219 16.0872 48.3616 16.1208 48.4966C16.1208 48.5238 16.1344 48.5476 16.1412 48.5731L16.1667 48.6462L16.1956 48.7193L16.2263 48.7906C16.1344 48.9266 16.0561 49.0677 15.9795 49.1985C15.911 49.3231 15.8324 49.4419 15.7446 49.5538C15.6628 49.6565 15.5594 49.7401 15.4417 49.7985C15.3022 49.8601 15.1497 49.887 14.9975 49.8767C14.8239 49.8693 14.6521 49.8384 14.4869 49.7849C14.3232 49.7318 14.1652 49.6624 14.0155 49.5775C13.8594 49.4888 13.7093 49.39 13.5662 49.2818C13.4198 49.173 13.2751 49.0558 13.1356 48.9419C13.1356 48.9232 13.1356 48.9062 13.1236 48.8892C13.1117 48.8722 13.1236 48.8552 13.1117 48.8365C13.0998 48.8178 13.1117 48.8025 13.0981 48.7838C13.0845 48.7652 13.0862 48.7482 13.0828 48.7312C13.0423 48.6051 12.9851 48.4851 12.9126 48.3743C12.8366 48.2662 12.7493 48.1665 12.6522 48.0768C12.5542 47.9866 12.4501 47.9031 12.3408 47.827C12.2318 47.7522 12.1178 47.6808 12.0004 47.6162C12.0009 47.6196 12.0009 47.6231 12.0004 47.6264V47.6366V47.6468V47.657L12.0174 47.7199C12.0174 47.7403 12.0293 47.7607 12.0361 47.7828C12.0429 47.8049 12.048 47.8253 12.0548 47.8474C12.0616 47.8695 12.0684 47.8899 12.077 47.912C12.2028 48.2513 12.3771 48.5707 12.5943 48.8603C12.7985 49.1466 13.0394 49.4049 13.3109 49.6285C13.5754 49.8473 13.8693 50.0281 14.184 50.1656C14.4925 50.3014 14.8226 50.3819 15.1592 50.4035C15.4833 50.4243 15.8078 50.3696 16.1071 50.2438C16.404 50.1156 16.6663 49.9194 16.873 49.671C17.0979 49.3997 17.2574 49.0805 17.3393 48.738C17.4324 48.342 17.4353 47.9302 17.3479 47.533L17.2611 47.1727"
        fill="#1D1D1B"
    />
    <path
        d="M3.88209 30.4693L3.77657 30.5185L3.67275 30.5729L3.56893 30.6324L3.46681 30.6987C3.2779 30.8228 3.1026 30.9451 2.93751 31.076C2.77273 31.204 2.61849 31.3449 2.47629 31.4975C2.32341 31.662 2.18664 31.8407 2.06782 32.0312C1.9267 32.2559 1.80432 32.4918 1.7019 32.7365C2.0254 32.6913 2.35362 32.6913 2.67712 32.7365C3.02165 32.7842 3.35894 32.8744 3.68126 33.005C4.03866 33.1504 4.38072 33.3309 4.70242 33.5438C5.06343 33.7852 5.40487 34.0545 5.72359 34.3494L4.36203 30.3095L4.2395 30.3401L4.11866 30.3758L3.99782 30.4183L3.87868 30.4676"
        fill="#1D1D1B"
    />
    <path
        d="M4.99011 30.25L6.33294 34.1828L9.31644 34.227C9.02669 33.6431 8.69151 33.0828 8.314 32.5512C7.99652 32.1024 7.63319 31.6878 7.22986 31.3139C6.8966 31.0031 6.51925 30.7431 6.10999 30.5423C5.76025 30.3708 5.37926 30.2719 4.99011 30.2517"
        fill="#1D1D1B"
    />
    <path
        d="M6.75842 35.4235C7.24985 36.0095 7.69969 36.6291 8.10466 37.2777C8.57156 38.0226 8.99601 38.7932 9.37601 39.5858C9.78447 40.4355 10.1708 41.3465 10.5299 42.3204C10.889 43.2942 11.226 44.3463 11.5256 45.4442C11.5477 44.9666 11.5528 44.4754 11.5443 43.9758C11.5358 43.4761 11.5102 42.9679 11.4677 42.4546C11.4251 41.9414 11.3707 41.423 11.2975 40.9012C11.2243 40.3795 11.1273 39.8577 11.0269 39.3342C10.9543 38.983 10.876 38.6397 10.792 38.3043C10.7086 37.9644 10.6218 37.6432 10.5231 37.3236C10.4244 37.0041 10.3291 36.6948 10.2253 36.3957C10.1215 36.0965 10.0108 35.8059 9.9002 35.5238L6.75842 35.4235Z"
        fill="#1D1D1B"
    />
    <path
        d="M0 6.46961C0.0862316 7.27747 0.182675 8.09497 0.28933 8.92209C0.395985 9.74922 0.512284 10.586 0.638227 11.4324C0.76644 12.2753 0.904864 13.1291 1.0535 13.9936C1.20214 14.8581 1.36155 15.7289 1.53175 16.6059C1.75867 17.7536 1.99467 18.877 2.23975 19.9761C2.48483 21.0752 2.74409 22.1516 3.01754 23.2053C3.28871 24.2579 3.57237 25.2776 3.86851 26.2645C4.16464 27.2514 4.46419 28.2145 4.76713 29.1538C4.89944 29.1331 5.03317 29.1229 5.16709 29.1232C5.30338 29.1249 5.43935 29.1368 5.57385 29.1589C5.71289 29.1821 5.84999 29.2156 5.98402 29.2592C6.12435 29.3067 6.26137 29.3635 6.39419 29.4291C6.07876 28.687 5.76957 27.925 5.46663 27.1432C5.16368 26.3614 4.86868 25.5632 4.58162 24.7485C4.29569 23.9327 4.01658 23.0988 3.74427 22.2467C3.47196 21.3947 3.20532 20.5307 2.94435 19.6549C2.60397 18.5037 2.28911 17.3593 1.99978 16.2218C1.71045 15.0842 1.44381 13.9659 1.19987 12.8668C0.955922 11.7689 0.734103 10.6845 0.534409 9.61382C0.334715 8.54309 0.156578 7.49502 0 6.46961Z"
        fill="#1D1D1B"
    />
    <path
        d="M26.586 23.2648C26.4159 23.2937 26.2354 23.326 26.0601 23.3633C25.8848 23.4007 25.7198 23.4398 25.5394 23.484C25.3589 23.5282 25.199 23.5758 25.0288 23.6251C24.8586 23.6744 24.6884 23.7305 24.5182 23.795L23.9583 28.785C24.5147 28.1557 25.1063 27.5582 25.73 26.9953C26.3242 26.457 26.9493 25.9537 27.6021 25.4878C28.2307 25.0374 28.886 24.6254 29.5644 24.2539C30.2204 23.8973 30.898 23.5817 31.5931 23.309C31.2089 23.1912 30.8155 23.1054 30.4171 23.0523C30.0301 23.0015 29.6399 22.9787 29.2496 22.9843C28.853 22.9843 28.448 23.0183 28.0242 23.0642C27.6004 23.1101 27.1511 23.1764 26.6762 23.2495H26.6524H26.6303H26.6082H26.586"
        fill="#1D1D1B"
    />
    <path
        d="M22.3158 30.8483L15.0605 34.4514C14.9618 34.8513 14.8801 35.2564 14.8154 35.6665C14.7507 36.0767 14.7025 36.4931 14.6707 36.9157C14.6384 37.3372 14.6248 37.7655 14.6316 38.1904C14.6384 38.6153 14.6605 39.0538 14.7048 39.4855C14.77 40.1209 14.878 40.7511 15.0281 41.372C15.1739 41.9746 15.3616 42.5664 15.5898 43.143C15.8128 43.7047 16.0756 44.25 16.3761 44.7745C16.6704 45.2872 17.0014 45.778 17.3666 46.243C17.4228 43.3522 17.9192 40.4868 18.8388 37.7451C19.2629 36.4843 19.7776 35.2557 20.379 34.0689C20.9452 32.9517 21.5919 31.877 22.3141 30.8534"
        fill="#1D1D1B"
    />
    <path
        opacity="0.7"
        d="M20.1288 0.629883C20.3727 1.55279 20.5687 2.48767 20.716 3.43078C20.8726 4.40973 20.99 5.42607 21.0785 6.47981C21.167 7.53354 21.2317 8.65186 21.2759 9.79737C21.3202 10.9429 21.3474 12.1632 21.3678 13.4056C21.4155 16.2948 21.1976 18.6215 20.8181 20.5625C20.4985 22.2553 19.9721 23.9026 19.2506 25.4674C18.6684 26.6668 18.0237 27.8349 17.3189 28.9668C16.6926 30.0308 16.1429 31.0301 15.8008 32.196C15.7889 32.2266 15.777 32.2555 15.7651 32.2844C15.7531 32.3133 15.7395 32.3439 15.7276 32.3728L15.6919 32.4612C15.68 32.4917 15.668 32.5206 15.6561 32.5512L22.5183 29.2575C22.8689 27.0616 23.0953 25.0085 23.2195 23.0846C23.3421 21.2151 23.3727 19.4713 23.3404 17.8482C23.3063 16.2608 23.211 14.789 23.0766 13.4294C22.9421 12.0697 22.7753 10.8647 22.5898 9.75318C22.4503 8.91189 22.2903 8.0893 22.115 7.2854C21.9397 6.48151 21.7474 5.7082 21.5397 4.94679C21.3321 4.18539 21.1108 3.45457 20.8743 2.73735C20.6377 2.02013 20.3909 1.30971 20.1288 0.629883Z"
        fill="#1D1D1B"
    />
    <path
        d="M46.7943 39.0079C42.1088 39.0079 40.0001 36.6693 40.0001 33.6271L40.235 33.3925H43.0466L43.2815 33.6271C43.2815 35.2638 44.2192 36.2002 47.0257 36.2002C49.1344 36.2002 50.3054 35.4983 50.3054 34.0944C50.3054 32.4561 49.3676 31.9887 46.088 31.5213C42.8083 31.0539 40.2316 29.8846 40.2316 26.6095C40.2316 24.2709 42.1037 22.1652 46.556 22.1652C51.0083 22.1652 52.8804 24.2709 52.8804 27.0769L52.6506 27.3132H49.839L49.6042 27.0786C49.6042 25.6748 48.9013 24.9728 46.3245 24.9728C44.2158 24.9728 43.5129 25.6748 43.5129 26.6112C43.5129 28.0151 44.4507 28.4808 47.7303 28.9498C51.01 29.4189 53.5867 30.8194 53.5867 34.0961C53.5867 36.6608 51.7129 39.0079 46.7943 39.0079Z"
        fill="#1D1D1B"
    />
    <path
        d="M61.4653 39.0079C59.3566 39.0079 58.4205 37.8386 58.4205 37.8386H58.1856V43.2194L57.9508 43.4591H55.1392L54.9043 43.2245V27.3132L55.1392 27.0786H57.7159L57.9508 27.3132L58.1856 28.0151H58.4205C58.4205 28.0151 59.3583 26.8458 61.4653 26.8458C64.2769 26.8458 66.6187 29.1844 66.6187 32.9285C66.6187 36.6727 64.2752 39.0079 61.4653 39.0079ZM60.7624 29.6501C58.8902 29.6501 58.1856 31.0539 58.1856 32.9251C58.1856 34.7964 58.8885 36.2002 60.7624 36.2002C62.6362 36.2002 63.3391 34.7913 63.3391 32.9217C63.3391 31.0522 62.6362 29.6501 60.7624 29.6501Z"
        fill="#1D1D1B"
    />
    <path
        d="M75.5182 29.8846H73.8792C72.0071 29.8846 71.3025 30.8211 71.3025 32.9251V38.5337L71.0676 38.7683H68.2577L68.0297 38.5405V27.3132L68.2645 27.0786H70.8413L71.0761 27.3132L71.311 28.0151H71.5459C71.5459 28.0151 72.0139 27.0786 74.1226 27.0786H75.5182L75.7531 27.3132V29.6518L75.5182 29.8846Z"
        fill="#1D1D1B"
    />
    <path
        d="M84.1863 39.0079C83.2485 41.3465 82.3141 42.747 79.0328 42.747H77.8619L77.627 42.5124V40.1772L77.8619 39.9427H79.0328C80.2037 39.9427 80.4386 39.7081 80.6718 39.0062V38.7717L76.9275 29.6484V27.3132L77.1624 27.0786H79.2626L79.5008 27.3132L82.3124 35.2671H82.5473L85.3589 27.3132L85.5938 27.0786H87.7025L87.9424 27.3132V29.6518L84.1863 39.0079Z"
        fill="#1D1D1B"
    />
    <path
        d="M99.4135 38.7734H98.0077L97.5397 38.5388L94.26 35.0292H94.0252L92.6194 36.4331L92.3845 36.9004V38.5388L92.1496 38.7734H89.3397L89.1049 38.5388V22.6308L89.3397 22.3963H92.1513L92.3862 22.6308V31.9887H92.6211L97.3031 27.3132L97.7711 27.0786H99.1752L99.4135 27.3132V29.6518L96.6019 32.4595V32.694L99.6467 36.2036V38.5422L99.4135 38.7734Z"
        fill="#1D1D1B"
    />
    <path
        d="M111.599 33.8616L111.364 34.0961H104.097L103.862 34.3307C103.862 34.7981 104.33 36.2002 106.204 36.2002C106.907 36.2002 107.61 35.9657 107.843 35.4983L108.078 35.2637H110.89L111.124 35.4983C110.89 36.9021 109.719 39.0079 106.206 39.0079C102.223 39.0079 100.349 36.2002 100.349 32.9251C100.349 29.6501 102.222 26.8424 105.966 26.8424C109.71 26.8424 111.582 29.6501 111.582 32.9251L111.599 33.8616ZM108.085 31.523C108.085 31.2884 107.85 29.6535 105.976 29.6535C104.102 29.6535 103.867 31.2901 103.867 31.523L104.102 31.7575H107.847L108.085 31.523Z"
        fill="#1D1D1B"
    />
    <path
        d="M120.73 29.8846H119.088C117.216 29.8846 116.511 30.8211 116.511 32.9251V38.5337L116.276 38.7683H113.471L113.237 38.5337V27.3132L113.471 27.0786H116.048L116.283 27.3132L116.518 28.0151H116.753C116.753 28.0151 117.221 27.0786 119.33 27.0786H120.735L120.96 27.3132V29.6518L120.73 29.8846Z"
        fill="#1D1D1B"
    />
    <path
        d="M51.4108 60.0139H50.143L49.9845 59.8541V52.1873H49.826L46.6563 59.8594L46.4978 60.0192H45.0715L44.913 59.8594L41.7433 52.1873H41.5848V59.8594L41.4264 60.0192H40.1585L40 59.8594V48.9905L40.1585 48.8307H41.9018L42.0603 48.9905L45.7054 57.9414H45.8639L49.509 48.9905L49.6675 48.8307H51.4108L51.5693 48.9905V59.8594L51.4108 60.0139Z"
        fill="#11856E"
    />
    <path
        d="M53.3127 56.018C53.3127 53.7803 54.4221 51.8623 56.9579 51.8623C59.4936 51.8623 60.603 53.7803 60.603 56.018V56.4975L60.4445 56.6573H55.2145L55.0561 56.8172C55.0493 57.3564 55.2698 57.8732 55.6627 58.239C56.0556 58.6047 56.5839 58.7851 57.1164 58.7352C57.7999 58.8186 58.4525 58.4237 58.7012 57.7762L58.8597 57.6164H60.1276L60.286 57.7762C60.1276 59.0549 59.0182 60.1737 57.1164 60.1737C54.5806 60.1791 53.3127 58.4155 53.3127 56.018ZM58.8597 55.2188C58.8597 54.1595 58.0082 53.3008 56.9579 53.3008C55.9075 53.3008 55.0561 54.1595 55.0561 55.2188L55.2145 55.3787H58.7012L58.8597 55.2188Z"
        fill="#11856E"
    />
    <path
        d="M66.4668 53.4606H65.6744C64.4066 53.4606 63.6141 53.9401 63.6141 55.8582V59.8541L63.4557 60.0139H62.1878L62.0293 59.8541V52.1873L62.1878 52.0274H63.2972L63.4557 52.1873L63.6141 52.8266H63.7726C64.2992 52.2521 65.0604 51.9569 65.8329 52.0274H66.4668L66.6253 52.1873V53.3061L66.4668 53.4606Z"
        fill="#11856E"
    />
    <path
        d="M70.7455 58.7352C72.0134 58.7352 72.4889 58.0959 72.6473 57.4565L72.8058 57.2967H74.0895L74.248 57.4565C74.0895 58.895 72.9802 60.1737 70.7614 60.1737C68.3841 60.1737 66.9578 58.5754 66.9578 56.018C66.9578 53.4606 68.3841 51.8623 70.7614 51.8623C72.9802 51.8623 74.0895 53.1409 74.248 54.5795L74.0895 54.7393H72.8217L72.6632 54.5795C72.5047 53.9401 72.0293 53.3008 70.7614 53.3008C69.335 53.3008 68.5426 54.2598 68.5426 56.018C68.5426 57.7762 69.335 58.7352 70.7455 58.7352Z"
        fill="#11856E"
    />
    <path
        d="M82.315 60.0139H81.0471L80.8887 59.8541V55.2188C80.8887 54.2598 80.5717 53.3008 79.3038 53.3008C78.036 53.3008 77.2435 53.9401 77.2435 55.8582V59.8541L77.0851 60.0139H75.8172L75.6587 59.8541V48.9905L75.8172 48.8307H77.0851L77.2435 48.9905V52.8266H77.402C77.8975 52.1934 78.6631 51.8371 79.4623 51.8676C81.8396 51.8676 82.4735 53.466 82.4735 55.2241V59.8594L82.315 60.0139Z"
        fill="#11856E"
    />
    <path
        d="M90.398 60.0139H89.2886L89.1301 59.8541L88.9716 59.2147H88.8132C88.2701 59.8765 87.444 60.2335 86.5944 60.1737C84.8511 60.1737 83.9001 59.2147 83.9001 57.6164C83.9001 55.8582 85.3265 55.059 87.3868 55.059C87.8666 55.0593 88.345 55.1129 88.8132 55.2188L88.9716 55.059V54.7393C88.9716 53.6205 88.4962 53.3008 87.3868 53.3008C86.2774 53.3008 85.802 53.6205 85.802 54.2598L85.6435 54.4196H84.3756L84.2171 54.2598C84.2171 53.1409 85.0095 51.8623 87.3868 51.8623C89.7641 51.8623 90.5565 52.9811 90.5565 55.3787V59.8541L90.398 60.0139ZM88.9716 56.6573L88.8132 56.4975C88.4005 56.3821 87.9734 56.3282 87.5453 56.3377C86.1189 56.3377 85.485 56.8172 85.485 57.6164C85.485 58.4155 85.9604 58.7352 86.9113 58.7352C88.1792 58.7352 88.9716 58.0959 88.9716 57.1369V56.6573Z"
        fill="#11856E"
    />
    <path
        d="M98.9559 60.0139H97.688L97.5295 59.8541V55.2188C97.5295 54.4196 97.371 53.3008 95.9447 53.3008C94.5183 53.3008 93.8844 54.1 93.8844 56.018V59.8541L93.7259 60.0139H92.458L92.2996 59.8541V52.1873L92.458 52.0274H93.5674L93.7259 52.1873L93.8844 52.8266H94.0429C94.5384 52.1934 95.304 51.8371 96.1032 51.8676C98.322 51.8676 99.1144 53.3061 99.1144 55.2241V59.8594L98.9559 60.0139Z"
        fill="#11856E"
    />
    <path
        d="M104.978 60.0139H103.711C102.601 60.0139 101.492 59.3746 101.492 57.936V53.6205L101.333 53.4606H100.224L100.065 53.3008V52.1873L100.224 52.0274H101.333L101.492 51.8676V50.4291L101.65 50.2692H102.918L103.077 50.4291V51.8676L103.235 52.0274H104.978L105.137 52.1873V53.3061L104.978 53.4659H103.235L103.077 53.6258V57.9414C103.06 58.1155 103.122 58.288 103.244 58.4117C103.367 58.5354 103.538 58.5974 103.711 58.5807H104.978L105.137 58.7405V59.8594L104.978 60.0139Z"
        fill="#11856E"
    />
    <path
        d="M116.231 55.2188H112.903L112.744 55.3787V59.8541L112.586 60.0139H111.318L111.159 59.8541V48.9905L111.318 48.8307H116.231C118.449 48.8307 119.876 49.7897 119.876 52.0274C119.876 54.2651 118.291 55.2188 116.231 55.2188ZM116.231 50.2639H112.903L112.744 50.4237V53.6205L112.903 53.7803H116.231C117.657 53.7803 118.291 53.3008 118.291 52.0221C118.291 50.7434 117.657 50.2639 116.231 50.2639Z"
        fill="#11856E"
    />
    <path
        d="M124.155 51.8623C126.532 51.8623 127.958 53.4606 127.958 56.018C127.958 58.5754 126.532 60.1737 124.155 60.1737C121.777 60.1737 120.351 58.5754 120.351 56.018C120.351 53.4606 121.777 51.8623 124.155 51.8623ZM124.155 58.7352C125.581 58.7352 126.373 57.7762 126.373 56.018C126.373 54.2598 125.581 53.3008 124.155 53.3008C122.728 53.3008 121.936 54.2598 121.936 56.018C121.936 57.7762 122.728 58.7352 124.155 58.7352Z"
        fill="#11856E"
    />
    <path
        d="M133.822 53.4606H133.03C131.762 53.4606 130.97 53.9401 130.97 55.8582V59.8541L130.811 60.0139H129.559L129.401 59.8541V52.1873L129.559 52.0274H130.669L130.827 52.1873L130.985 52.8266H131.144C131.67 52.2521 132.432 51.9569 133.204 52.0274H133.838L133.997 52.1873V53.3061L133.822 53.4606Z"
        fill="#11856E"
    />
    <path
        d="M139.528 60.0139H138.26C137.151 60.0139 136.041 59.3746 136.041 57.936V53.6205L135.883 53.4606H134.773L134.615 53.3008V52.1873L134.773 52.0274H135.899L136.057 51.8676V50.4291L136.216 50.2692H137.484L137.642 50.4291V51.8676L137.801 52.0274H139.544L139.702 52.1873V53.3061L139.544 53.4659H137.801L137.642 53.6258V57.9414C137.625 58.1155 137.687 58.288 137.81 58.4117C137.932 58.5354 138.103 58.5974 138.276 58.5807H139.544L139.702 58.7405V59.8594L139.528 60.0139Z"
        fill="#11856E"
    />
    <path
        d="M147.135 60.0139H146.026L145.867 59.8541L145.709 59.2147H145.55C145.007 59.8765 144.181 60.2335 143.331 60.1737C141.588 60.1737 140.637 59.2147 140.637 57.6164C140.637 55.8582 142.064 55.059 144.124 55.059C144.604 55.0593 145.082 55.1129 145.55 55.2188L145.709 55.059V54.7393C145.709 53.6205 145.233 53.3008 144.124 53.3008C143.014 53.3008 142.539 53.6205 142.539 54.2598L142.381 54.4196H141.113L140.954 54.2598C140.954 53.1409 141.747 51.8623 144.124 51.8623C146.501 51.8623 147.294 52.9811 147.294 55.3787V59.8541L147.135 60.0139ZM145.709 56.6573L145.55 56.4975C145.138 56.3821 144.71 56.3282 144.282 56.3377C142.856 56.3377 142.222 56.8172 142.222 57.6164C142.222 58.4155 142.697 58.7352 143.648 58.7352C144.916 58.7352 145.709 58.0959 145.709 57.1369V56.6573Z"
        fill="#11856E"
    />
    <path
        d="M150.463 60.0139H149.195L149.037 59.8541V48.9905L149.195 48.8307H150.463L150.622 48.9905V59.8594L150.463 60.0139Z"
        fill="#11856E"
    />
</svg>
