<?xml version="1.0" encoding="UTF-8"?>
<svg
    width="189px"
    height="77px"
    viewBox="0 0 189 77"
    version="1.1"
    xmlns="http://www.w3.org/2000/svg"
    xmlns:xlink="http://www.w3.org/1999/xlink"
>
    <!-- Generator: Sketch 62 (91390) - https://sketch.com -->
    <title>logo</title>
    <desc>Created with Sketch.</desc>
    <g id="navigation" stroke="none" stroke-width="1" fill="none" fill-rule="evenodd">
        <g
            id="navigation-/-expanded-/-submenus-collapsed"
            transform="translate(-31.000000, -10.000000)"
            fill="#1D1D1B"
            fill-rule="nonzero"
        >
            <g id="logo" transform="translate(31.000000, 10.000000)">
                <path
                    d="M26.9624377,71.9674061 C26.7842659,72.0961775 26.5688643,72.2302048 26.348144,72.382628 C26.1284005,72.5273257 25.9179162,72.685306 25.7178947,72.8556655 C25.5341813,73.0061808 25.3800396,73.1887961 25.2631579,73.3944027 C25.1627132,73.5852706 25.1362357,73.8058116 25.1886981,74.0146075 C25.1886981,74.0566553 25.2099723,74.0934471 25.2206094,74.1328669 L25.2604986,74.2458703 L25.3057064,74.3588737 L25.3535734,74.4692491 C25.2099723,74.6794881 25.0876454,74.8976109 24.9679778,75.0999659 C24.8608831,75.2925555 24.7381537,75.4762412 24.6009972,75.649215 C24.4731826,75.8081145 24.3115855,75.9373064 24.1276454,76.0276451 C23.9096233,76.1229411 23.671426,76.1644282 23.4335734,76.1485324 C23.1623693,76.1371507 22.8939871,76.0894104 22.6357895,76.0066212 C22.3799386,75.9245672 22.1331423,75.8171491 21.899169,75.6860068 C21.6553436,75.5488258 21.4208294,75.3960786 21.1971191,75.2287372 C20.9684211,75.0605461 20.7423823,74.879215 20.5243213,74.7031399 C20.5243213,74.6742321 20.5243213,74.6479522 20.5057064,74.6216724 C20.4870914,74.5953925 20.5057064,74.5691126 20.4870914,74.5402048 C20.4684765,74.5112969 20.4870914,74.4876451 20.4658172,74.4587372 C20.4445429,74.4298294 20.4472022,74.4035495 20.4418837,74.3772696 C20.3786362,74.1823772 20.2891944,73.9967597 20.1759557,73.8253925 C20.0571495,73.6583225 19.920765,73.5041627 19.7690859,73.3654949 C19.6159446,73.225941 19.4533514,73.0968702 19.2824377,72.9791809 C19.1122438,72.8635495 18.934072,72.7531741 18.7505817,72.6533106 C18.7514744,72.6585295 18.7514744,72.6638595 18.7505817,72.6690785 L18.7505817,72.6848464 L18.7505817,72.7006143 L18.7505817,72.7163823 L18.7771745,72.8136177 C18.7771745,72.8451536 18.7957895,72.8766894 18.8064266,72.9108532 C18.8170637,72.9450171 18.8250416,72.9765529 18.8356787,73.0107167 C18.8463158,73.0448805 18.8569529,73.0764164 18.8702493,73.1105802 C19.0669371,73.6352724 19.339217,74.1291681 19.6786704,74.5769966 C19.9976793,75.0196312 20.3740772,75.4189894 20.7982271,75.7648464 C21.2115735,76.1031452 21.6707559,76.3826659 22.1624377,76.5952901 C22.6446084,76.8052547 23.1603853,76.9297905 23.686205,76.9632082 C24.192641,76.9953442 24.6997078,76.910778 25.1674238,76.7161775 C25.6311946,76.5179952 26.0411701,76.214582 26.3640997,75.8305461 C26.7154181,75.4110101 26.9646892,74.9174355 27.0927424,74.3877816 C27.2381213,73.7754991 27.242665,73.1387871 27.1060388,72.5245392 L26.9704155,71.9674061"
                    id="Path"
                />
                <path
                    d="M6.06581717,46.1395563 L5.90094183,46.2157679 L5.73872576,46.2998635 L5.5765097,46.391843 L5.41695291,46.4943345 C5.12177285,46.6861775 4.84786704,46.8753925 4.5899169,47.0777474 C4.33244436,47.2755983 4.0914496,47.4935443 3.86925208,47.7294881 C3.63038972,47.9838259 3.41667541,48.2601451 3.23102493,48.5546758 C3.01052872,48.9021196 2.81930323,49.2668857 2.65927978,49.6452901 C3.16474137,49.5754139 3.6775855,49.5754139 4.18304709,49.6452901 C4.72138618,49.7191219 5.24839316,49.8585918 5.75202216,50.0605119 C6.31045751,50.2853527 6.84493304,50.564411 7.34759003,50.8935836 C7.91166021,51.2668378 8.44516017,51.6833431 8.94315789,52.1392491 L6.81573407,45.8925256 L6.62426593,45.9398294 L6.43545706,45.9950171 L6.2466482,46.0607167 L6.06049861,46.1369283"
                    id="Path"
                />
                <path
                    d="M7.79700831,45.8005461 L9.89518006,51.8817065 L14.5568975,51.9500341 C14.1041563,51.0471575 13.5804447,50.1807686 12.9905817,49.3588396 C12.4945115,48.6648503 11.926809,48.0236823 11.2966205,47.4456655 C10.7758997,46.9650874 10.1862831,46.5630571 9.5468144,46.2525597 C9.00034523,45.9872442 8.40504733,45.8343596 7.79700831,45.8031741"
                    id="Path"
                />
                <path
                    d="M10.56,53.8001365 C11.3278594,54.706282 12.0307333,55.6643245 12.6634903,56.6672696 C13.3930224,57.8190159 14.0562363,59.01051 14.6499723,60.2360751 C15.2881994,61.5500683 15.891856,62.9586689 16.452964,64.4645051 C17.014072,65.9703413 17.5406094,67.5970648 18.0086427,69.294744 C18.0432133,68.5562799 18.0511911,67.7967918 18.0378947,67.0241638 C18.0245983,66.2515358 17.9847091,65.4657679 17.9182271,64.672116 C17.8517452,63.8784642 17.7666482,63.0769283 17.6522992,62.2701365 C17.5379501,61.4633447 17.3863712,60.6565529 17.2294737,59.8471331 C17.1160111,59.3040159 16.9936842,58.7731627 16.8624931,58.2545734 C16.7321884,57.7289761 16.5965651,57.2322867 16.4423269,56.7382253 C16.2880886,56.2441638 16.139169,55.7658703 15.9769529,55.3033447 C15.8147368,54.8408191 15.6418837,54.3914334 15.4690305,53.9551877 L10.56,53.8001365"
                    id="Path"
                />
                <path
                    d="M0,9.02976109 C0.134736842,10.2789306 0.285429363,11.542992 0.452077562,12.8219454 C0.618725762,14.1008987 0.800443213,15.394744 0.997229917,16.7034812 C1.19756233,18.0069625 1.41385042,19.3270876 1.64609418,20.6638567 C1.87833795,22.0006257 2.12742382,23.3470307 2.3933518,24.7030717 C2.74792244,26.4778385 3.1166759,28.2149374 3.49961219,29.9143686 C3.88254848,31.6137998 4.28764543,33.2781911 4.71490305,34.9075427 C5.13861496,36.5351422 5.58182825,38.111934 6.04454294,39.6379181 C6.50725762,41.1639022 6.97529086,42.6530944 7.44864266,44.1054949 C7.65537502,44.0735535 7.86433012,44.0577368 8.07357341,44.0581911 C8.28652843,44.0608419 8.49898151,44.0792897 8.70914127,44.1133788 C8.92638496,44.1491906 9.14061202,44.2010191 9.3500277,44.26843 C9.56929576,44.3419443 9.78339357,44.4297361 9.99091413,44.5312287 C9.49806094,43.3836746 9.01495845,42.2054608 8.54160665,40.996587 C8.06825485,39.7877133 7.60731302,38.5534357 7.15878116,37.2937543 C6.71202216,36.0323208 6.27590028,34.7428555 5.85041551,33.4253584 C5.42493075,32.1078612 5.00831025,30.7719681 4.60055402,29.4176792 C4.06869806,27.6376564 3.5767313,25.8681456 3.12465374,24.1091468 C2.67257618,22.3501479 2.25595568,20.6209329 1.87479224,18.9215017 C1.49362881,17.2238225 1.14703601,15.5471672 0.83501385,13.8915358 C0.52299169,12.2359044 0.24465374,10.6153129 0,9.02976109"
                    id="Path"
                />
                <path
                    d="M41.5406094,34.9995222 C41.2746814,35.044198 40.9927978,35.0941297 40.718892,35.1519454 C40.4449861,35.2097611 40.187036,35.2702048 39.9051524,35.3385324 C39.6232687,35.4068601 39.3732964,35.4804437 39.1073684,35.5566553 C38.8414404,35.6328669 38.5755125,35.7195904 38.3095845,35.8194539 L37.4346814,43.5352218 C38.3042041,42.562221 39.2284348,41.6383378 40.2029917,40.7679522 C41.1315215,39.9355748 42.1082389,39.1572535 43.1281994,38.4369283 C44.1104126,37.7404798 45.1343299,37.1033451 46.194349,36.5290102 C47.2193065,35.9775077 48.2779692,35.4895129 49.3642105,35.0678498 C48.7637931,34.8857918 48.149182,34.7530651 47.5266482,34.6710239 C46.9219384,34.5923677 46.3122446,34.5572354 45.7023823,34.5659044 C45.0827701,34.5659044 44.4498615,34.6184642 43.7877008,34.6894198 C43.1255402,34.7603754 42.4234903,34.8628669 41.6815512,34.9758703 L41.6443213,34.9758703 L41.6097507,34.9758703 L41.5751801,34.9758703 L41.5406094,34.9758703"
                    id="Path"
                />
                <path
                    d="M34.8684765,46.7255973 L23.5319668,52.2969283 C23.3777285,52.9153811 23.2500831,53.5417179 23.1490305,54.1759386 C23.0479778,54.8101593 22.9726316,55.4540159 22.9229917,56.1075085 C22.8724654,56.7592491 22.8511911,57.4215017 22.8618283,58.0784983 C22.8724654,58.7354949 22.907036,59.4135154 22.9761773,60.0810239 C23.0780206,61.0635019 23.246825,62.03807 23.4814404,62.9980887 C23.7091745,63.9299306 24.002407,64.8449387 24.3590028,65.7364505 C24.707497,66.605124 25.1180617,67.4482062 25.58759,68.2593174 C26.0474302,69.0520573 26.5646795,69.8108964 27.1352909,70.5298976 C27.223027,66.0599572 27.9986673,61.6292475 29.4355679,57.3899659 C30.0981793,55.4403713 30.9024901,53.5406456 31.8422161,51.7056314 C32.7268138,49.9780222 33.7373447,48.3162582 34.8658172,46.7334812"
                    id="Path"
                />
                <path
                    d="M31.4513019,0 C31.8324143,1.42705708 32.1386399,2.87262562 32.3687535,4.3309215 C32.6134072,5.84464164 32.7968975,7.41617747 32.9351801,9.04552901 C33.0734626,10.6748805 33.1745152,12.4040956 33.2436565,14.1753584 C33.3127978,15.9466212 33.3553463,17.8335154 33.3872576,19.7545734 C33.4617175,24.2221502 33.1213296,27.8198635 32.5283102,30.8210239 C32.0289876,33.4386519 31.206439,35.9858186 30.0791136,38.4053925 C29.1694504,40.2599803 28.161972,42.0661364 27.060831,43.8164164 C26.0822161,45.4615358 25.2232687,47.0067918 24.6887535,48.8095904 C24.6701385,48.8568942 24.6515235,48.90157 24.6329086,48.9462457 C24.6142936,48.9909215 24.5930194,49.0382253 24.5744044,49.082901 L24.5185596,49.2195563 C24.4999446,49.2668601 24.4813296,49.3115358 24.4627147,49.3588396 L35.1849307,44.265802 L35.1849307,44.265802 L35.1849307,44.265802 C35.7327424,40.8704437 36.0864266,37.6958362 36.280554,34.7209556 C36.4720222,31.8301706 36.5198892,29.1338567 36.4693629,26.6241297 C36.4161773,24.1695904 36.2672576,21.8937543 36.0571745,19.7913652 C35.8470914,17.6889761 35.586482,15.8257338 35.2966205,14.1070307 C35.0785596,12.8061775 34.8285873,11.5342321 34.5546814,10.2911945 C34.2807756,9.048157 33.980277,7.85242321 33.6558449,6.67508532 C33.3314127,5.49774744 32.9857064,4.36771331 32.6160665,3.25870307 C32.2464266,2.14969283 31.860831,1.05119454 31.4513019,0"
                    id="Path"
                    opacity="0.7"
                />
                <path
                    d="M72.9809418,59.3425597 C65.6599446,59.3425597 62.365097,55.7264505 62.365097,51.0223549 L62.7320776,50.6596928 L67.1252078,50.6596928 L67.4921884,51.0223549 C67.4921884,53.5531058 68.9574515,55.0011263 73.3426039,55.0011263 C76.6374515,55.0011263 78.467036,53.9157679 78.467036,51.7450512 C78.467036,49.2116724 77.0017729,48.4889761 71.8773407,47.7662799 C66.7529086,47.0435836 62.726759,45.235529 62.726759,40.1713993 C62.726759,36.5552901 65.6519668,33.299215 72.6086427,33.299215 C79.5653186,33.299215 82.4905263,36.5552901 82.4905263,40.8940956 L82.1315235,41.2593857 L77.7383934,41.2593857 L77.3714127,40.8967235 C77.3714127,38.7260068 76.2731302,37.6406485 72.2469806,37.6406485 C68.952133,37.6406485 67.8538504,38.7260068 67.8538504,40.1740273 C67.8538504,42.344744 69.3191136,43.0648123 74.4435457,43.7901365 C79.5679778,44.5154608 83.5941274,46.6809215 83.5941274,51.7476792 C83.5941274,55.7133106 80.6662604,59.3425597 72.9809418,59.3425597 Z"
                    id="Path"
                />
                <path
                    d="M96.0395568,59.3425597 C92.7447091,59.3425597 91.2821053,57.5345051 91.2821053,57.5345051 L90.9151247,57.5345051 L90.9151247,65.8547099 L90.548144,66.225256 L86.1550139,66.225256 L85.7880332,65.8625939 L85.7880332,41.2593857 L86.1550139,40.8967235 L90.1811634,40.8967235 L90.548144,41.2593857 L90.9151247,42.344744 L91.2821053,42.344744 C91.2821053,42.344744 92.7473684,40.5366894 96.0395568,40.5366894 C100.432687,40.5366894 104.091856,44.1527986 104.091856,49.9422526 C104.091856,55.7317065 100.430028,59.3425597 96.0395568,59.3425597 Z M94.9412742,44.8728669 C92.0160665,44.8728669 90.9151247,47.0435836 90.9151247,49.9369966 C90.9151247,52.8304096 92.0134072,55.0011263 94.9412742,55.0011263 C97.8691413,55.0011263 98.9674238,52.8225256 98.9674238,49.9317406 C98.9674238,47.0409556 97.8691413,44.8728669 94.9412742,44.8728669 Z"
                    id="Shape"
                />
                <path
                    d="M117.99723,45.235529 L115.436343,45.235529 C112.511136,45.235529 111.410194,46.6835495 111.410194,49.9369966 L111.410194,58.6093515 L111.043213,58.9720137 L106.652742,58.9720137 L106.296399,58.6198635 L106.296399,41.2593857 L106.66338,40.8967235 L110.689529,40.8967235 L111.05651,41.2593857 L111.42349,42.344744 L111.790471,42.344744 C111.790471,42.344744 112.521773,40.8967235 115.81662,40.8967235 L117.99723,40.8967235 L118.364211,41.2593857 L118.364211,44.8754949 L117.99723,45.235529 Z"
                    id="Path"
                />
                <path
                    d="M131.540942,59.3425597 C130.075679,62.9586689 128.615734,65.1241297 123.488643,65.1241297 L121.659058,65.1241297 L121.292078,64.7614676 L121.292078,61.1506143 L121.659058,60.7879522 L123.488643,60.7879522 C125.318227,60.7879522 125.685208,60.4252901 126.049529,59.3399317 L126.049529,58.9772696 L120.199114,44.8702389 L120.199114,41.2593857 L120.566094,40.8967235 L123.847645,40.8967235 L124.219945,41.2593857 L128.613075,53.5583618 L128.980055,53.5583618 L133.373186,41.2593857 L133.740166,40.8967235 L137.035014,40.8967235 L137.409972,41.2593857 L137.409972,44.8754949 L131.540942,59.3425597 Z"
                    id="Path"
                />
                <polygon
                    id="Path"
                    points="155.333518 58.9798976 153.136953 58.9798976 152.405651 58.6172355 147.281219 53.1904437 146.914238 53.1904437 144.717673 55.3611604 144.350693 56.0838567 144.350693 58.6172355 143.983712 58.9798976 139.593241 58.9798976 139.22626 58.6172355 139.22626 34.0192833 139.593241 33.6566212 143.986371 33.6566212 144.353352 34.0192833 144.353352 48.4889761 144.720332 48.4889761 152.036011 41.2593857 152.767313 40.8967235 154.961219 40.8967235 155.333518 41.2593857 155.333518 44.8754949 150.940388 49.2169283 150.940388 49.5795904 155.697839 55.0063823 155.697839 58.6224915"
                />
                <path
                    d="M174.373961,51.3850171 L174.006981,51.7476792 L162.651856,51.7476792 L162.284875,52.1103413 C162.284875,52.8330375 163.016177,55.0011263 165.944044,55.0011263 C167.042327,55.0011263 168.140609,54.6384642 168.504931,53.9157679 L168.871911,53.5531058 L173.265042,53.5531058 L173.632022,53.9157679 C173.265042,56.0864846 171.435457,59.3425597 165.946704,59.3425597 C159.723989,59.3425597 156.796122,55.0011263 156.796122,49.9369966 C156.796122,44.8728669 159.72133,40.5314334 165.571745,40.5314334 C171.422161,40.5314334 174.347368,44.8728669 174.347368,49.9369966 L174.373961,51.3850171 Z M168.882548,47.7689078 C168.882548,47.4062457 168.515568,44.8781229 165.587701,44.8781229 C162.659834,44.8781229 162.292853,47.4088737 162.292853,47.7689078 L162.659834,48.13157 L168.510249,48.13157 L168.882548,47.7689078 Z"
                    id="Shape"
                />
                <path
                    d="M188.640997,45.235529 L186.074792,45.235529 C183.149584,45.235529 182.048643,46.6835495 182.048643,49.9369966 L182.048643,58.6093515 L181.681662,58.9720137 L177.299169,58.9720137 L176.932188,58.6093515 L176.932188,41.2593857 L177.299169,40.8967235 L181.325319,40.8967235 L181.692299,41.2593857 L182.05928,42.344744 L182.42626,42.344744 C182.42626,42.344744 183.157562,40.8967235 186.45241,40.8967235 L188.648975,40.8967235 L189,41.2593857 L189,44.8754949 L188.640997,45.235529 Z"
                    id="Path"
                />
            </g>
        </g>
    </g>
</svg>
