<?xml version="1.0" encoding="UTF-8"?>
<svg width="200" height="76" viewBox="0 0 200 76" fill="none" xmlns="http://www.w3.org/2000/svg">
    <path
        d="M75.9573 61.2285H74.3721L74.1739 61.0303V51.5191H73.9758L70.0128 61.0303L69.8146 61.2285H68.0312L67.8331 61.0303L63.8701 51.5191H63.6719V61.0303L63.4738 61.2285H61.8886L61.6904 61.0303V47.5561L61.8886 47.3579H64.0682L64.2664 47.5561L68.8238 58.6525H69.022L73.5795 47.5561L73.7776 47.3579H75.9573L76.1554 47.5561V61.0303L75.9573 61.2285Z"
        fill="#1EBEA0"
    />
    <path
        d="M78.3359 56.275C78.3359 53.5009 79.723 51.123 82.8934 51.123C86.0638 51.123 87.4509 53.5009 87.4509 56.275V56.8694L87.2527 57.0676H80.7137L80.5156 57.2657C80.5114 57.5963 80.5767 57.924 80.7074 58.2276C80.8381 58.5313 81.0311 58.8041 81.274 59.0283C81.5169 59.2525 81.8043 59.4232 82.1174 59.5292C82.4305 59.6351 82.7624 59.6741 83.0915 59.6435C83.507 59.6938 83.9274 59.6042 84.2862 59.3889C84.645 59.1736 84.9219 58.8448 85.0731 58.4546L85.2712 58.2565H86.8564L87.0546 58.4546C86.8564 60.0398 85.4694 61.4269 83.0915 61.4269C79.9211 61.4269 78.3359 59.2472 78.3359 56.275ZM85.2712 55.2842C85.2712 54.6536 85.0207 54.0488 84.5748 53.6028C84.1288 53.1569 83.524 52.9064 82.8934 52.9064C82.2628 52.9064 81.658 53.1569 81.212 53.6028C80.7661 54.0488 80.5156 54.6536 80.5156 55.2842L80.7137 55.4824H85.0731L85.2712 55.2842Z"
        fill="#1EBEA0"
    />
    <path
        d="M94.7826 53.1042H93.7918C92.2066 53.1042 91.2159 53.6987 91.2159 56.0765V61.0302L91.0177 61.2284H89.4325L89.2344 61.0302V51.519L89.4325 51.3208H90.8196L91.0177 51.519L91.2159 52.3116H91.414C91.7388 51.9602 92.14 51.6881 92.5867 51.5163C93.0333 51.3446 93.5134 51.2777 93.99 51.3208H94.7826L94.9807 51.519V52.906L94.7826 53.1042Z"
        fill="#1EBEA0"
    />
    <path
        d="M100.132 59.6435C101.717 59.6435 102.311 58.8509 102.509 58.0583L102.708 57.8602H104.293L104.491 58.0583C104.293 59.8417 102.906 61.4269 100.132 61.4269C97.1593 61.4269 95.376 59.4454 95.376 56.275C95.376 53.1045 97.1593 51.123 100.132 51.123C102.906 51.123 104.293 52.7083 104.491 54.4916L104.293 54.6898H102.708L102.509 54.4916C102.311 53.699 101.717 52.9064 100.132 52.9064C98.3482 52.9064 97.3575 54.0953 97.3575 56.275C97.3575 58.4546 98.3482 59.6435 100.132 59.6435Z"
        fill="#1EBEA0"
    />
    <path
        d="M114.597 61.2285H113.012L112.813 61.0303V55.2839C112.813 54.095 112.417 52.9061 110.832 52.9061C109.247 52.9061 108.256 53.6987 108.256 56.0765V61.0303L108.058 61.2285H106.473L106.274 61.0303V47.5561L106.473 47.3579H108.058L108.256 47.5561V52.3117H108.454C108.76 51.9247 109.152 51.6153 109.6 51.4087C110.047 51.2021 110.537 51.1041 111.03 51.1228C114.002 51.1228 114.795 53.1043 114.795 55.2839V61.0303L114.597 61.2285Z"
        fill="#1EBEA0"
    />
    <path
        d="M124.702 61.2287H123.315L123.117 61.0306L122.919 60.238H122.721C122.386 60.6423 121.96 60.9611 121.477 61.1679C120.995 61.3746 120.47 61.4634 119.947 61.4269C117.767 61.4269 116.578 60.238 116.578 58.2565C116.578 56.0768 118.361 55.0861 120.937 55.0861C121.537 55.0865 122.135 55.1529 122.721 55.2842L122.919 55.0861V54.6898C122.919 53.3027 122.324 52.9064 120.937 52.9064C119.55 52.9064 118.956 53.3027 118.956 54.0953L118.758 54.2935H117.173L116.974 54.0953C116.974 52.7083 117.965 51.123 120.937 51.123C123.91 51.123 124.9 52.5101 124.9 55.4824V61.0306L124.702 61.2287ZM122.919 57.0676L122.721 56.8694C122.205 56.7263 121.671 56.6596 121.136 56.6713C119.352 56.6713 118.56 57.2657 118.56 58.2565C118.56 59.2472 119.154 59.6435 120.343 59.6435C121.928 59.6435 122.919 58.8509 122.919 57.662V57.0676Z"
        fill="#1EBEA0"
    />
    <path
        d="M135.402 61.2285H133.817L133.619 61.0304V55.284C133.619 54.2933 133.421 52.9062 131.638 52.9062C129.854 52.9062 129.062 53.897 129.062 56.2748V61.0304L128.863 61.2285H127.278L127.08 61.0304V51.5191L127.278 51.321H128.665L128.863 51.5191L129.062 52.3117H129.26C129.565 51.9248 129.958 51.6154 130.405 51.4088C130.853 51.2022 131.343 51.1042 131.836 51.1228C134.61 51.1228 135.601 52.9062 135.601 55.284V61.0304L135.402 61.2285Z"
        fill="#1EBEA0"
    />
    <path
        d="M142.933 61.2288H141.348C139.96 61.2288 138.573 60.4362 138.573 58.6528V53.3028L138.375 53.1046H136.988L136.79 52.9065V51.5194L136.988 51.3213H138.375L138.573 51.1231V49.3397L138.772 49.1416H140.357L140.555 49.3397V51.1231L140.753 51.3213H142.933L143.131 51.5194V52.9065L142.933 53.1046H140.753L140.555 53.3028V58.6528C140.545 58.7595 140.558 58.867 140.594 58.9678C140.631 59.0687 140.689 59.1602 140.764 59.236C140.84 59.3117 140.932 59.3698 141.032 59.406C141.133 59.4422 141.241 59.4557 141.348 59.4454H142.933L143.131 59.6436V61.0306L142.933 61.2288Z"
        fill="#1EBEA0"
    />
    <path
        d="M157.001 55.2839H152.84L152.642 55.4821V61.0303L152.444 61.2285H150.858L150.66 61.0303V47.5561L150.858 47.3579H157.001C159.775 47.3579 161.558 48.5468 161.558 51.3209C161.558 54.095 159.577 55.2839 157.001 55.2839ZM157.001 49.1413H152.84L152.642 49.3394V53.3024L152.84 53.5006H157.001C158.784 53.5006 159.577 52.9061 159.577 51.3209C159.577 49.7357 158.784 49.1413 157.001 49.1413Z"
        fill="#1EBEA0"
    />
    <path
        d="M166.909 51.123C169.881 51.123 171.665 53.1045 171.665 56.275C171.665 59.4454 169.881 61.4269 166.909 61.4269C163.937 61.4269 162.153 59.4454 162.153 56.275C162.153 53.1045 163.937 51.123 166.909 51.123ZM166.909 59.6435C168.692 59.6435 169.683 58.4546 169.683 56.275C169.683 54.0953 168.692 52.9064 166.909 52.9064C165.126 52.9064 164.135 54.0953 164.135 56.275C164.135 58.4546 165.126 59.6435 166.909 59.6435Z"
        fill="#1EBEA0"
    />
    <path
        d="M178.996 53.1042H178.006C176.421 53.1042 175.43 53.6987 175.43 56.0765V61.0302L175.232 61.2284H173.646L173.448 61.0302V51.519L173.646 51.3208H175.033L175.232 51.519L175.43 52.3116H175.628C175.953 51.9602 176.354 51.6881 176.801 51.5163C177.247 51.3446 177.727 51.2777 178.204 51.3208H178.996L179.195 51.519V52.906L178.996 53.1042Z"
        fill="#1EBEA0"
    />
    <path
        d="M186.129 61.2288H184.544C183.157 61.2288 181.77 60.4362 181.77 58.6528V53.3028L181.572 53.1046H180.184L179.986 52.9065V51.5194L180.184 51.3213H181.572L181.77 51.1231V49.3397L181.968 49.1416H183.553L183.751 49.3397V51.1231L183.949 51.3213H186.129L186.327 51.5194V52.9065L186.129 53.1046H183.949L183.751 53.3028V58.6528C183.741 58.7595 183.754 58.867 183.791 58.9678C183.827 59.0687 183.885 59.1602 183.961 59.236C184.036 59.3117 184.128 59.3698 184.229 59.406C184.33 59.4422 184.437 59.4557 184.544 59.4454H186.129L186.327 59.6436V61.0306L186.129 61.2288Z"
        fill="#1EBEA0"
    />
    <path
        d="M195.641 61.2287H194.254L194.056 61.0306L193.857 60.238H193.659C193.325 60.6423 192.898 60.9611 192.416 61.1679C191.934 61.3746 191.409 61.4634 190.885 61.4269C188.706 61.4269 187.517 60.238 187.517 58.2565C187.517 56.0768 189.3 55.0861 191.876 55.0861C192.476 55.0865 193.074 55.1529 193.659 55.2842L193.857 55.0861V54.6898C193.857 53.3027 193.263 52.9064 191.876 52.9064C190.489 52.9064 189.894 53.3027 189.894 54.0953L189.696 54.2935H188.111L187.913 54.0953C187.913 52.7083 188.904 51.123 191.876 51.123C194.848 51.123 195.839 52.5101 195.839 55.4824V61.0306L195.641 61.2287ZM193.857 57.0676L193.659 56.8694C193.143 56.7263 192.609 56.6596 192.074 56.6713C190.291 56.6713 189.498 57.2657 189.498 58.2565C189.498 59.2472 190.093 59.6435 191.281 59.6435C192.867 59.6435 193.857 58.8509 193.857 57.662V57.0676Z"
        fill="#1EBEA0"
    />
    <path
        d="M199.802 61.2285H198.217L198.019 61.0303V47.5561L198.217 47.3579H199.802L200 47.5561V61.0303L199.802 61.2285Z"
        fill="#1EBEA0"
    />
    <path
        d="M67.3053 35.2707C62.4176 35.2707 60.1719 32.8268 60.1719 29.5903L60.4361 29.3261H63.4083L63.6725 29.5903C63.6725 31.3076 64.6633 32.2984 67.5695 32.2984C69.7492 32.2984 71.0041 31.5718 71.0041 30.1187C71.0041 28.4014 70.0134 27.9391 66.5787 27.4107C63.1441 26.8823 60.5021 25.6934 60.5021 22.2588C60.5021 19.8149 62.4176 17.6353 67.1071 17.6353C71.7967 17.6353 73.7122 19.8149 73.7122 22.7872L73.448 23.0514H70.4757L70.2115 22.7872C70.2115 21.3341 69.485 20.6075 66.7769 20.6075C64.5972 20.6075 63.8046 21.3341 63.8046 22.3248C63.8046 23.7779 64.7954 24.2403 68.23 24.7687C71.6646 25.2971 74.3066 26.6841 74.3066 30.1848C74.4387 32.8268 72.4572 35.2707 67.3053 35.2707Z"
        fill="black"
    />
    <path
        d="M82.0339 25.4292C80.1185 25.4292 79.3259 26.8823 79.3259 28.8638C79.3259 30.8453 80.0524 32.2984 82.0339 32.2984C84.0154 32.2984 84.742 30.8453 84.742 28.8638C84.742 26.8823 83.9494 25.4292 82.0339 25.4292ZM82.7605 35.2707C82.1677 35.3115 81.573 35.2267 81.0153 35.0218C80.4576 34.8169 79.9494 34.4966 79.524 34.0818H79.3259V39.7621L79.0617 40.0263H76.0894L75.8252 39.7621V22.9854L76.0894 22.7212H78.7975L79.0617 22.9854L79.3259 23.7119H79.5901C80.0031 23.28 80.5094 22.9482 81.0704 22.7422C81.6314 22.5361 82.2321 22.4611 82.8265 22.523C85.7988 22.523 88.2426 24.9669 88.2426 28.8638C88.2426 32.7608 85.7327 35.2707 82.7605 35.2707Z"
        fill="black"
    />
    <path
        d="M97.4905 25.6935H95.7732C93.8577 25.6935 93.0651 26.6842 93.0651 28.9299V34.8084L92.8009 35.0726H89.8286L89.5645 34.8084V22.9854L89.8286 22.7212H92.5367L92.8009 22.9854L93.0651 23.7119H93.3293C93.3293 23.7119 93.8577 22.7212 96.0374 22.7212H97.4905L97.7547 22.9854V25.4292L97.4905 25.6935Z"
        fill="black"
    />
    <path
        d="M106.539 35.2707C105.548 37.7146 104.624 39.1677 101.123 39.1677H99.9341L99.6699 38.9035V36.4596L99.9341 36.1954H101.123C102.312 36.1954 102.576 35.9312 102.84 35.2047V34.9405L98.9434 25.3632V22.9193L99.2076 22.7212H101.387L101.651 22.9854L104.624 31.3738H104.888L107.86 22.9854L108.124 22.7212H110.304L110.568 22.9854V25.4292L106.539 35.2707Z"
        fill="black"
    />
    <path
        d="M131.572 27.4105C131.49 26.838 131.19 26.3192 130.734 25.9624C130.279 25.6056 129.704 25.4382 129.128 25.4951C128.635 25.5395 128.173 25.7556 127.823 26.1056C127.473 26.4557 127.257 26.9175 127.212 27.4105L127.477 27.6747H131.374L131.572 27.4105ZM135.205 29.8544L134.94 30.1186H127.345L127.08 30.3828C127.152 30.9653 127.446 31.4974 127.902 31.867C128.358 32.2366 128.94 32.4149 129.524 32.3643C129.849 32.4069 130.18 32.362 130.482 32.2343C130.783 32.1065 131.046 31.9006 131.242 31.6377L131.506 31.3735H134.478L134.742 31.6377C134.478 33.0909 133.289 35.2705 129.59 35.2705C125.429 35.2705 123.514 32.2982 123.514 28.9297C123.514 25.5611 125.429 22.5889 129.392 22.5889C133.355 22.5889 135.271 25.5611 135.271 28.9297V29.8544H135.205Z"
        fill="black"
    />
    <path
        d="M144.782 25.6935H143.065C141.149 25.6935 140.356 26.6842 140.356 28.9299V34.8084L140.092 35.0726H137.12L136.922 34.8084V22.9854L137.186 22.7212H139.894L140.158 22.9854L140.423 23.7119H140.687C140.687 23.7119 141.215 22.7212 143.395 22.7212H144.848L145.112 22.9854V25.4292L144.782 25.6935Z"
        fill="black"
    />
    <path
        d="M122.524 35.0065H121.071L120.542 34.7423L117.108 31.1096H116.843L115.39 32.5627L115.126 33.0911V34.7423L114.862 35.0065H111.956L111.691 34.7423V18.0977L111.956 17.8335H114.862L115.126 18.0977V27.9392H115.39L120.278 22.9854L120.806 22.7873H122.259L122.524 22.9854V25.4293L119.551 28.4015V28.6657L122.722 32.2985V34.7423L122.524 35.0065Z"
        fill="black"
    />
    <path
        d="M25.958 70.2114L25.3635 70.6077C25.1499 70.7408 24.9507 70.8958 24.7691 71.0701C24.5826 71.198 24.4433 71.3836 24.3728 71.5985C24.3158 71.6854 24.2801 71.7845 24.2686 71.8878C24.2571 71.9911 24.2702 72.0956 24.3067 72.1929V72.325L24.3728 72.4571C24.3728 72.5232 24.3728 72.5232 24.4388 72.5892C24.5049 72.6553 24.4388 72.6553 24.5049 72.7213L24.1086 73.3158C24.0136 73.5009 23.9031 73.6777 23.7783 73.8442C23.6387 73.9923 23.4837 74.1251 23.316 74.2405C23.1033 74.3161 22.8809 74.3606 22.6555 74.3726C22.3869 74.361 22.1207 74.3166 21.8629 74.2405C21.609 74.1581 21.3653 74.0474 21.1363 73.9102C20.9012 73.7787 20.6799 73.6238 20.4758 73.4479C20.24 73.2923 20.0189 73.1154 19.8153 72.9195V72.6553C19.7683 72.4615 19.6779 72.2808 19.5511 72.1269C19.419 71.9948 19.2869 71.7966 19.1548 71.6645C19.0227 71.5324 18.8246 71.4003 18.6925 71.2682C18.526 71.1434 18.3492 71.0329 18.1641 70.938V71.4003C18.3391 71.9155 18.5835 72.4043 18.8906 72.8534C19.2074 73.2799 19.561 73.6778 19.9474 74.0423C20.3476 74.3683 20.7925 74.6352 21.2684 74.8349C21.7268 75.0383 22.2203 75.1504 22.7215 75.1652C23.2186 75.1739 23.7125 75.0841 24.1746 74.901C24.6251 74.7313 25.0157 74.4326 25.2975 74.0423C25.6415 73.6409 25.8899 73.1666 26.024 72.6553C26.1563 72.0459 26.1563 71.4152 26.024 70.8059L25.958 70.2114Z"
        fill="black"
    />
    <path
        d="M5.81201 44.98L5.67991 45.0461L5.54781 45.1121L5.41571 45.1782L5.28361 45.3103L4.49101 45.9047C4.23277 46.1066 3.98992 46.3273 3.76445 46.5652C3.54546 46.8131 3.34668 47.0782 3.17 47.3578C2.96769 47.6964 2.79106 48.0497 2.6416 48.4146C3.12372 48.3486 3.61259 48.3486 4.09471 48.4146C4.61691 48.4762 5.12813 48.6096 5.61386 48.8109C6.15227 49.0086 6.66288 49.275 7.13302 49.6035C7.66142 49.9998 8.18982 50.3961 8.65217 50.7924L6.60461 44.7158H6.40646L6.20831 44.7819L6.01016 44.8479L5.81201 44.98Z"
        fill="black"
    />
    <path
        d="M7.5293 44.6499L9.57685 50.5944L14.0683 50.6605C13.6256 49.7869 13.1177 48.9479 12.5491 48.1506C12.0737 47.4511 11.5197 46.8084 10.8979 46.2351C10.3804 45.7648 9.80293 45.365 9.18055 45.0462C8.65908 44.814 8.09935 44.6797 7.5293 44.6499Z"
        fill="black"
    />
    <path
        d="M10.1719 52.4438C10.9276 53.3122 11.6123 54.2399 12.2194 55.218C12.9222 56.3485 13.5616 57.5172 14.1349 58.7186C14.7293 59.9736 15.3238 61.3606 15.8522 62.8137C16.3806 64.2668 16.909 65.852 17.3713 67.5033C17.3713 66.7767 17.4374 66.0502 17.3713 65.3236C17.3053 64.5971 17.3053 63.8045 17.2392 63.0119C17.1732 62.2193 17.1071 61.4267 16.975 60.6341L16.5787 58.2563C16.4466 57.7279 16.3145 57.1995 16.2485 56.7371C16.1472 56.2449 16.0149 55.7595 15.8522 55.284C15.728 54.8122 15.5735 54.3489 15.3898 53.897C15.2065 53.4674 15.052 53.0261 14.9275 52.5759L10.1719 52.4438Z"
        fill="black"
    />
    <path
        d="M0 8.78467C0.1321 9.97357 0.264201 11.2285 0.462351 12.4835C0.660502 13.7384 0.792602 14.9934 0.990753 16.3144C1.1889 17.6354 1.38705 18.8903 1.5852 20.2114C1.78336 21.5324 2.04756 22.8534 2.31176 24.1744C2.64201 25.8917 2.97226 27.609 3.36856 29.2602C3.76486 30.9115 4.16116 32.5627 4.55746 34.1479C4.95377 35.7332 5.41612 37.2523 5.81242 38.7715C6.20872 40.2906 6.73712 41.7437 7.19947 43.1308C7.39762 43.1308 7.59577 43.0647 7.79392 43.0647C7.99436 43.054 8.19519 43.0763 8.38838 43.1308C8.58653 43.1968 8.78468 43.1968 8.98283 43.2629C9.19229 43.3229 9.39237 43.4118 9.57728 43.5271C9.11493 42.4042 8.65258 41.2814 8.19022 40.0925C7.72787 38.9036 7.26552 37.7147 6.86922 36.4597C6.47292 35.2048 6.01057 33.9498 5.61427 32.6948C5.21797 31.4399 4.82166 30.1189 4.42536 28.7979C3.89696 27.0806 3.43461 25.3633 2.97226 23.646C2.50991 21.9287 2.11361 20.2114 1.78336 18.5601C1.4531 16.9088 1.0568 15.2576 0.792602 13.6724C0.528402 12.0872 0.264201 10.3699 0 8.78467"
        fill="black"
    />
    <path
        d="M40.0265 34.1479C39.7623 34.2139 39.4981 34.2139 39.2339 34.28L38.4413 34.4781L37.6487 34.6763L36.8561 34.9405L36.0635 42.4702C36.9221 41.5455 37.7808 40.6208 38.7055 39.7622C39.6065 38.9576 40.5549 38.2076 41.5456 37.5165C42.4868 36.8236 43.4805 36.2052 44.5179 35.6671C45.5087 35.1387 46.4994 34.6763 47.5562 34.2139C46.9774 34.0193 46.3796 33.8864 45.7729 33.8176C45.2032 33.7433 44.6299 33.6992 44.0556 33.6855C43.4611 33.6855 42.8667 33.7516 42.2061 33.8176C41.5456 33.8837 40.8851 34.0158 40.1586 34.0818L40.0265 34.1479Z"
        fill="black"
    />
    <path
        d="M33.6195 45.5747L22.7212 50.9908C22.5735 51.6 22.4632 52.2176 22.391 52.8402C22.3249 53.5007 22.1928 54.0952 22.1928 54.6896C22.1378 55.3266 22.1158 55.9659 22.1268 56.6051C22.1268 57.2656 22.1928 57.9261 22.2589 58.5866C22.3485 59.5427 22.5029 60.4916 22.7212 61.4268C22.9375 62.3286 23.2247 63.212 23.5799 64.0688C24.2559 65.7523 25.1677 67.3313 26.2879 68.7583C26.341 66.5213 26.5618 64.2913 26.9484 62.0873C27.3364 60.006 27.866 57.9537 28.5336 55.9446C29.1673 54.0411 29.9399 52.1867 30.8454 50.3964C31.5898 48.692 32.5202 47.0749 33.6195 45.5747Z"
        fill="black"
    />
    <path
        d="M30.3168 0C30.7043 1.3866 30.9912 2.79934 31.1755 4.22721C31.4397 5.68032 31.5718 7.26552 31.7039 8.85073C31.836 10.4359 31.902 12.1532 32.0341 13.8705C32.1662 15.5878 32.1662 17.4373 32.1662 19.2867C32.2689 22.893 32.0033 26.5004 31.3736 30.0528C30.9128 32.6133 30.1131 35.101 28.9958 37.4505C28.1177 39.2602 27.1477 41.0238 26.0896 42.7345C25.1223 44.2397 24.3458 45.8594 23.7779 47.5561L23.7118 47.6882L23.6458 47.8203C23.6458 47.8864 23.6458 47.8864 23.5797 47.9524C23.5137 48.0185 23.5137 48.0185 23.5137 48.0845L33.8175 43.1308C34.3459 39.8283 34.6762 36.7239 34.8743 33.8177C35.0725 30.9115 35.0725 28.4016 35.0725 25.8917C35.0531 23.6627 34.9209 21.4362 34.6762 19.2206C34.478 17.1731 34.2138 15.3236 33.9496 13.6724C33.7515 12.4174 33.4873 11.1625 33.223 9.97358C32.9588 8.78468 32.6946 7.59577 32.3644 6.47292C32.0341 5.35007 31.7039 4.22721 31.3736 3.17041C31.0434 2.11361 30.7131 0.990753 30.3168 0"
        fill="#4D4D4D"
    />
</svg>
