<?xml version="1.0" encoding="UTF-8"?>
<svg width="42px" height="66px" viewBox="0 0 42 66" version="1.1" xmlns="http://www.w3.org/2000/svg" xmlns:xlink="http://www.w3.org/1999/xlink">
    <!-- Generator: Sketch 62 (91390) - https://sketch.com -->
    <title>logo</title>
    <desc>Created with Sketch.</desc>
    <g id="table" stroke="none" stroke-width="1" fill="none" fill-rule="evenodd">
        <g id="navigation-/-collapsed" transform="translate(-10.000000, -14.000000)" fill="#1D1D1B" fill-rule="nonzero">
            <g id="logo" transform="translate(10.000000, 14.000000)">
                <path d="M22.7989661,62 C22.6514497,62.1029665 22.4731089,62.2101357 22.2903647,62.3320144 C22.1084291,62.4477157 21.9341596,62.5740378 21.7685528,62.7102586 C21.6164482,62.8306116 21.4888273,62.9766321 21.3920557,63.1410367 C21.308893,63.293656 21.2869711,63.4700021 21.330407,63.6369569 C21.330407,63.6705786 21.3480209,63.6999976 21.3568279,63.7315179 L21.389854,63.8218763 L21.4272835,63.9122346 L21.4669148,64.0004916 C21.3480209,64.1686001 21.246741,64.3430127 21.1476628,64.5048172 C21.0589943,64.6588132 20.957381,64.8056896 20.843823,64.9440007 C20.7379995,65.0710579 20.604206,65.1743606 20.4519137,65.2465961 C20.2714033,65.3227955 20.074189,65.3559689 19.8772601,65.3432585 C19.6527181,65.3341576 19.4305123,65.2959841 19.2167388,65.2297852 C19.0049083,65.1641743 18.8005745,65.078282 18.6068575,64.9734197 C18.4049834,64.8637288 18.2108186,64.741591 18.0255987,64.6077837 C17.8362493,64.4732968 17.6491016,64.3283032 17.4685591,64.1875123 C17.4685591,64.1643974 17.4685591,64.1433838 17.4531469,64.1223703 C17.4377347,64.1013567 17.4531469,64.0803431 17.4377347,64.0572282 C17.4223226,64.0341133 17.4377347,64.0152011 17.4201208,63.9920861 C17.4025069,63.9689712 17.4047087,63.9479577 17.4003052,63.9269441 C17.3479398,63.7711067 17.2738869,63.6226856 17.1801314,63.4856592 C17.0817665,63.3520688 16.9688475,63.2288016 16.8432655,63.1179218 C16.716473,63.0063335 16.5818547,62.9031276 16.4403475,62.8090223 C16.2994363,62.7165626 16.1519199,62.6283057 16,62.5484541 C16.0007391,62.5526272 16.0007391,62.5568891 16,62.5610622 L16,62.5736704 L16,62.5862785 L16,62.5988867 L16.0220174,62.6766369 C16.0220174,62.7018531 16.0374295,62.7270694 16.0462365,62.7543871 C16.0550434,62.7817047 16.0616487,62.806921 16.0704556,62.8342386 C16.0792626,62.8615562 16.0880695,62.8867725 16.0990782,62.9140902 C16.2619249,63.3336378 16.4873577,63.7285604 16.7684065,64.0866472 C17.0325284,64.440581 17.3441652,64.7599106 17.695338,65.0364604 C18.0375662,65.3069665 18.417744,65.5304733 18.8248295,65.7004891 C19.2240404,65.8683783 19.6510753,65.9679581 20.0864252,65.9946791 C20.5057265,66.0203753 20.9255499,65.9527555 21.3127931,65.7971515 C21.6967699,65.6386836 22.0362071,65.3960722 22.3035751,65.0889943 C22.5944474,64.7535304 22.8008302,64.3588646 22.9068512,63.9353495 C23.027217,63.4457641 23.030979,62.9366446 22.9178599,62.4454876 L22.8055713,62" id="Path"></path>
                <path d="M4.71053745,40.1977282 L4.57934829,40.2587295 L4.45027507,40.3260412 L4.32120186,40.3996634 L4.1942446,40.4816996 C3.95937368,40.6352545 3.74143039,40.7867059 3.53618282,40.9486748 C3.33131528,41.1070385 3.13955888,41.2814868 2.9627592,41.4703408 C2.77269954,41.6739177 2.60264984,41.895089 2.45493017,42.1308372 C2.27948421,42.408938 2.12732858,42.700904 2,43.0037863 C2.40218921,42.947856 2.8102526,42.947856 3.21244181,43.0037863 C3.64079122,43.0628827 4.06012381,43.1745171 4.46085485,43.336138 C4.90519458,43.516105 5.33046981,43.7394687 5.73042742,44.0029449 C6.17925072,44.3017049 6.6037497,44.6350839 7,45 L5.30723656,40 L5.15488785,40.0378629 L5.0046551,40.0820362 L4.85442234,40.1346235 L4.70630554,40.1956247" id="Path"></path>
                <path d="M7,39 L8.86231314,43.9444444 L13,44 C12.5981521,43.2658929 12.1333117,42.561453 11.6097561,41.8931624 C11.1694498,41.3288965 10.6655636,40.8075783 10.1062156,40.3376068 C9.64402981,39.9468604 9.12069285,39.6199793 8.55310779,39.3675214 C8.06806803,39.1517997 7.53968845,39.027493 7,39.0021368" id="Path"></path>
                <path d="M9,46 C9.61560294,46.7602575 10.1791062,47.5640566 10.6863957,48.4055292 C11.2712712,49.3718461 11.8029785,50.3715115 12.2789844,51.3997626 C12.7906595,52.5022049 13.2746188,53.6840231 13.7244665,54.947422 C14.1743141,56.2108209 14.5964461,57.5756445 14.9716744,59 C14.9993902,58.3804274 15.0057861,57.7432157 14.9951262,57.0949796 C14.9844663,56.4467436 14.9524866,55.787483 14.8991871,55.1216079 C14.8458877,54.4557327 14.7776643,53.7832429 14.6859892,53.1063433 C14.5943141,52.4294437 14.4727913,51.7525441 14.3470045,51.0734396 C14.25604,50.6177635 14.157969,50.1723768 14.0527913,49.7372795 C13.9483243,49.2963026 13.8395934,48.8795794 13.7159385,48.4650611 C13.5922837,48.0505427 13.4728929,47.6492537 13.3428421,47.261194 C13.2127914,46.8731343 13.0742127,46.4960991 12.9356341,46.1300882 L9,46" id="Path"></path>
                <path d="M0,8 C0.121373436,9.05559257 0.257120043,10.1237693 0.407239819,11.2045303 C0.557359595,12.2852913 0.721054032,13.3786365 0.89832313,14.4845658 C1.07878627,15.5860537 1.27362257,16.7016063 1.48283205,17.8312236 C1.69204152,18.9608409 1.91642268,20.0986009 2.15597551,21.2445037 C2.47537929,22.7442446 2.80755922,24.2121549 3.1525153,25.6482345 C3.49747139,27.0843142 3.8623902,28.4907839 4.24727176,29.8676438 C4.62895928,31.2430232 5.028214,32.5754682 5.44503593,33.8649789 C5.86185787,35.1544896 6.28347085,36.4129099 6.7098749,37.6402398 C6.89610323,37.6132482 7.08433384,37.5998825 7.27282406,37.6002665 C7.46465788,37.6025065 7.65603954,37.6180955 7.84535534,37.6469021 C8.04105246,37.6771643 8.23403215,37.7209612 8.42267767,37.7779258 C8.62019839,37.840048 8.81306165,37.9142352 9,38 C8.55602875,37.0302761 8.1208411,36.0346436 7.69443705,35.0131024 C7.26803301,33.9915612 6.85280809,32.9485528 6.44876231,31.8840773 C6.04631355,30.8181213 5.6534469,29.7284773 5.27016236,28.6151455 C4.88687783,27.5018136 4.51157839,26.3729366 4.14426404,25.2285143 C3.66515837,23.7243319 3.22198563,22.2290325 2.81474581,20.742616 C2.40750599,19.2561996 2.03220655,17.7949515 1.68884748,16.3588719 C1.34548842,14.9242727 1.03327123,13.5074395 0.752195901,12.1083722 C0.471120575,10.7093049 0.220388608,9.33984751 0,8" id="Path"></path>
                <path d="M35.441819,29.3878489 C35.2189033,29.4276908 34.9826126,29.47222 34.7530094,29.5237801 C34.5234062,29.5753403 34.3071779,29.629244 34.0708872,29.6901788 C33.8345965,29.7511135 33.6250557,29.8167355 33.40214,29.8847011 C33.1792243,29.9526667 32.9563085,30.0300069 32.7333928,30.1190653 L32,37 C32.7288827,36.1322762 33.5036246,35.3083556 34.3205528,34.5321443 C35.0988986,33.7898288 35.9176378,33.0957206 36.7726259,32.4533334 C37.5959721,31.8322394 38.454277,31.2640416 39.3428444,30.7518488 C40.2020212,30.260018 41.0894516,29.8248234 42,29.4487836 C41.4966964,29.2864239 40.9814949,29.168058 40.4596523,29.0948935 C39.9527506,29.0247478 39.4416711,28.9934167 38.9304503,29.0011478 C38.4110566,29.0011478 37.8805172,29.0480207 37.325457,29.111299 C36.7703968,29.1745774 36.1818992,29.2659794 35.5599643,29.3667561 L35.5287561,29.3667561 L35.4997771,29.3667561 L35.470798,29.3667561 L35.441819,29.3667561" id="Path"></path>
                <path d="M30,40 L20.5602401,44.680945 C20.431808,45.2005594 20.3255193,45.7267977 20.2413741,46.25966 C20.157229,46.7925223 20.0944892,47.3334805 20.0531547,47.8825348 C20.0110821,48.430117 19.9933673,48.9865312 20.0022247,49.5385295 C20.0110821,50.0905277 20.0398686,50.6601899 20.0974416,51.2210201 C20.1822452,52.0464827 20.3228063,52.8652996 20.5181675,53.6718922 C20.7077986,54.4548112 20.9519694,55.2235866 21.2489019,55.9726209 C21.5390884,56.7024667 21.8809601,57.4108111 22.2719301,58.0922941 C22.6548328,58.7583417 23.0855394,59.3959065 23.5606798,60 C23.6337366,56.2444261 24.2796018,52.5218133 25.4760897,48.9600353 C26.0278374,47.3220165 26.6975762,45.7258968 27.4800735,44.1841466 C28.2166661,42.7326365 29.0581217,41.3364484 29.9977857,40.006624" id="Path"></path>
                <path d="M26.8115202,0 C27.1284429,1.21429916 27.3830918,2.44434993 27.574448,3.68523054 C27.7778955,4.97327228 27.930481,6.31051006 28.0454731,7.69694388 C28.1604651,9.0833777 28.2444977,10.5547865 28.3019937,12.0619742 C28.3594897,13.569162 28.3948719,15.1747418 28.4214085,16.809392 C28.4833273,20.6109041 28.20027,23.6722394 27.7071311,26.225961 C27.291908,28.4533306 26.6078988,30.6207438 25.6704454,32.6795868 C24.9139941,34.2576768 24.0762024,35.7945556 23.1605233,37.2838888 C22.3467336,38.6837398 21.6324562,39.9986157 21.1879677,41.5326376 C21.172488,41.5728889 21.1570083,41.6109041 21.1415286,41.6489192 C21.126049,41.6869343 21.1083579,41.7271856 21.0928782,41.7652007 L21.0464391,41.8814823 C21.0309594,41.9217336 21.0154797,41.9597487 21,42 L29.9163049,37.6662762 L29.9163049,37.6662762 L29.9163049,37.6662762 C30.3718502,34.777127 30.6659645,32.0758173 30.8273956,29.5444575 C30.9866153,27.0846555 31.0264202,24.7903312 30.9844039,22.6547758 C30.9401762,20.5661804 30.8163386,18.6296454 30.6416392,16.8406985 C30.4669398,15.0517517 30.250224,13.4662975 30.0091831,12.0038335 C29.8278495,10.8969226 29.6199793,9.81460973 29.3922066,8.7568949 C29.1644339,7.69918007 28.9145474,6.68171654 28.6447584,5.67990629 C28.3749694,4.67809605 28.0874894,3.71653711 27.7801068,2.77286764 C27.4727243,1.82919817 27.1520735,0.894473432 26.8115202,0" id="Path" opacity="0.7"></path>
            </g>
        </g>
    </g>
</svg>